<?xml version="1.0" encoding="utf-8"?>
<!-- Generator: Adobe Illustrator 24.3.0, SVG Export Plug-In . SVG Version: 6.00 Build 0)  -->
<svg version="1.1" id="Layer_1" xmlns="http://www.w3.org/2000/svg" xmlns:xlink="http://www.w3.org/1999/xlink" x="0px" y="0px"
	 viewBox="0 0 2000 2000" style="enable-background:new 0 0 2000 2000;" xml:space="preserve">
<style type="text/css">
	.st0{fill:#757575;}
	.st1{fill:#212121;}
	.st2{fill:#2F2F2F;}
	.st3{fill:#383838;}
</style>
<g>
	<path class="st0" d="M253.92,1686.17c0,0,208.16-75.82,261.12-97.24c52.96-21.42,60.1-30.94,60.1-30.94L376.4,1164.07
		l-263.19,119.7c0,0,5.54,88.6,37.97,190.93C183.6,1577.02,253.92,1686.17,253.92,1686.17z"/>
	<path class="st1" d="M253.93,1699.59c-4.46,0-8.76-2.23-11.29-6.15c-2.91-4.52-71.67-111.83-104.26-214.69
		c-32.56-102.72-38.34-190.46-38.57-194.14c-0.35-5.56,2.77-10.75,7.84-13.05l263.2-119.7c6.55-2.97,14.3-0.26,17.54,6.17
		l198.74,393.91c2.3,4.55,1.81,10.01-1.25,14.09c-3.5,4.68-16.71,15.48-65.8,35.34c-52.57,21.26-259.47,96.66-261.56,97.41
		C257.01,1699.33,255.46,1699.59,253.93,1699.59z M127.37,1292.07c2.37,24.96,11,97.81,36.6,178.57
		c26.2,82.64,78.36,171.12,95.58,199.19c42.5-15.52,205.04-74.98,250.46-93.35c26.49-10.72,40.72-18.15,48.05-22.56l-187.84-372.3
		L127.37,1292.07z"/>
	<g>
		<path class="st1" d="M1721.51,1674.08c-1.6,0-3.22-0.29-4.77-0.88l-374.91-142.84c-3.69-1.4-6.58-4.37-7.88-8.09
			c-1.31-3.72-0.91-7.84,1.09-11.24l182.98-311.5c3.26-5.54,10.01-7.98,16.04-5.86l398.91,140.98c3.42,1.21,6.21,3.75,7.72,7.05
			c1.52,3.3,1.63,7.07,0.32,10.45c-1.38,3.58-34.45,88.4-78.31,152.33c-42.78,62.35-68.83,96.34-76.63,105.6
			c-7.06,8.38-52.76,57.63-54.71,59.73C1728.77,1672.58,1725.18,1674.08,1721.51,1674.08z M1366.22,1510.93l351.61,133.97
			c17.17-18.53,42.99-46.53,47.7-52.12c6.04-7.17,31.28-39.72,75.03-103.48c32.33-47.13,59.28-107.93,70.2-134.02l-375.21-132.61
			L1366.22,1510.93z"/>
	</g>
	<g>
		<path class="st1" d="M575.14,1548.2c-5.37,0-10.44-3.25-12.51-8.56c-2.69-6.9,0.72-14.68,7.63-17.37
			c0.61-0.24,62.18-24.44,152.88-76.77c86.49-49.9,189.48-154.11,205.06-235.47c14.84-77.48,41.75-292.22,38.14-409.42
			c-3.97-129.2-28.1-155.47-38.3-160.77c-14.38-7.47-28.2,2.12-28.78,2.53c-4.21,2.98-9.81,3.33-14.32,0.83
			c-4.51-2.5-7.25-7.32-6.96-12.47c2.62-45.35-4.37-121.58-34.26-133.08c-20.41-7.84-27.81,2.58-29.59,5.97
			c-2.57,5.39-8.31,8.31-14.23,7.36c-5.89-0.96-10.39-5.83-11.1-11.76l-2.68-22.31c-5.01-41.8-20.68-62.91-46.22-62.26
			c-7.08,0.13-12.39,2.41-16.72,7.15c-11.99,13.18-12.78,41.75-12.1,50.72c0.48,6.36-3.58,12.17-9.71,13.91
			c-6.15,1.75-12.64-1.06-15.58-6.72c-0.75-1.34-8.49-14.22-27.45-14.22c-0.42,0-0.85,0.01-1.29,0.02
			c-16.42,0.5-24.91,18.91-27.15,24.63v387.71c0,6.02-4.01,11.3-9.8,12.92c-5.79,1.61-11.96-0.81-15.09-5.94
			c-0.37-0.62-37.89-62.27-64.82-109.19c-14.68-25.56-36.41-60.1-55.57-64.87c-4.69-1.18-8.89-0.37-13.63,2.6
			c-17.18,10.81-5.05,47.67,0.56,59.73c3.31,7.77,76.6,180.74,88.03,226.45c12.02,48.1,5.79,111.35-25.24,129.66
			c-23.41,13.81-135.49,68.14-140.25,70.45c-6.66,3.23-14.69,0.44-17.93-6.23c-3.23-6.67-0.45-14.69,6.23-17.93
			c1.15-0.56,115.83-56.16,138.31-69.41c14.85-8.75,23.68-56.63,12.84-100.03c-10.92-43.69-85.75-220.27-86.51-222.04
			c-11.61-24.75-22.91-72.88,9.68-93.37c10.95-6.89,22.51-8.88,34.4-5.93c28.62,7.13,52.64,43.2,72.36,77.55
			c12.5,21.78,27.32,46.78,39.59,67.3V487.81c0-1.34,0.2-2.67,0.59-3.95c0.56-1.79,13.98-44,52.59-45.17
			c11.96-0.37,21.78,2.34,29.48,6.22c2.19-13.78,7.07-29.59,17.61-41.18c9.24-10.14,21.7-15.65,36.06-15.92
			c0.45-0.01,0.91-0.01,1.37-0.01c23.43,0,62.24,11.34,71.7,83.51c10.33-4.22,23.96-5.22,40.89,1.3
			c45.78,17.61,51.8,98.83,51.93,138.73c9.87-2.09,22.23-2.02,35.13,4.7c11.84,6.15,47.85,24.88,52.74,183.75
			c3.72,120.88-23.16,334.62-38.61,415.3c-17.23,89.99-124.38,199.64-218.01,253.66c-92.64,53.46-153.98,77.54-156.55,78.54
			C578.41,1547.9,576.76,1548.2,575.14,1548.2z"/>
	</g>
	<g>
		<path class="st1" d="M720.32,874.61c-7.06,0-12.97-5.5-13.39-12.64L684.32,474.3c-0.43-7.4,5.22-13.75,12.62-14.18
			c7.4-0.48,13.75,5.22,14.18,12.62l22.61,387.67c0.43,7.4-5.22,13.75-12.62,14.18C720.84,874.6,720.58,874.61,720.32,874.61z"/>
	</g>
	<g>
		<path class="st1" d="M814.35,866.28c-1.42,0-2.85-0.23-4.27-0.7c-5.87-1.97-9.48-7.61-9.13-13.5
			c-0.03-13.77-9.64-266.55-13.36-363.57c-0.28-7.41,5.49-13.64,12.9-13.92c7.4-0.2,13.64,5.49,13.92,12.9
			c14.04,365.54,13.72,366.49,12.67,369.65C825.19,862.73,819.96,866.28,814.35,866.28z"/>
	</g>
	<g>
		<path class="st1" d="M889.91,863.9c-0.03,0-0.07,0-0.1,0c-7.41-0.06-13.37-6.11-13.32-13.53l1.76-226.4
			c0.06-7.38,6.05-13.32,13.42-13.32c0.03,0,0.07,0,0.1,0c7.41,0.06,13.37,6.11,13.32,13.53l-1.76,226.4
			C903.28,857.96,897.28,863.9,889.91,863.9z"/>
	</g>
	<g>
		<path class="st1" d="M1346.61,1531.24c-1.43,0-2.87-0.23-4.29-0.7c-9.71-3.28-238.6-80.74-291.67-124.66
			c-50.65-41.92-120.02-99.33-125.12-181.96c-0.46-7.4,5.17-13.77,12.57-14.22c7.45-0.38,13.77,5.17,14.22,12.57
			c4.38,71.02,68.57,124.15,115.44,162.94c43.2,35.75,226.38,100.34,272.55,116.28l159.43-288.3l-173.24-68.47
			c-3.52-1.39-6.29-4.2-7.62-7.74s-1.12-7.48,0.6-10.85l109.78-215.11c18.82-33.57,36.36-84.9,20.98-95.22
			c-22.53-15.12-41.05,7.04-43.09,9.61c-0.29,0.37-0.66,0.8-0.99,1.13L1270.51,964.9c-4.37,4.45-11.22,5.31-16.53,2.09
			c-5.33-3.23-7.74-9.7-5.81-15.62c3.24-10.01,79.74-245.69,99.22-299.44l2.25-6.2c16.69-45.9,32.45-89.25,15.52-104.94
			c-16.95-15.71-31.71-10.59-33.34-9.94c-4.81,1.87-10.4,0.88-14.16-2.64c-3.77-3.52-5.32-8.84-3.78-13.77
			c8.23-26.28,17.21-56.22,17.97-60.83c0.64-4.12,2.46-15.93-4.47-24.97c-5.82-7.6-16.86-12.34-32.82-14.08
			c-27.31-2.97-47.62,45.45-52.56,62.66c-1.65,5.73-6.88,9.7-12.84,9.72c-0.02,0-0.04,0-0.06,0c-5.94,0-11.18-3.9-12.87-9.6
			c-0.17-0.55-5.47-16.54-22.6-20.13c-22.77-4.8-35.43,16.86-39.8,26.38c-7.85,17.07-26.09,89.9-32.46,116.53
			c-1.6,6.68-8.05,11.08-14.8,10.18c-6.82-0.89-11.85-6.79-11.67-13.66c-0.08-1.64-1.45-12-20.49-16.31
			c-15.12-3.43-31.53,23.71-37.35,37.85l-46.31,148.78c-2.2,7.07-9.72,11.02-16.8,8.82c-7.08-2.2-11.03-9.72-8.82-16.8l46.48-149.32
			c0.1-0.34,0.22-0.67,0.35-1c0.25-0.61,6.12-15.17,16.35-28.91c19.68-26.44,39.16-28.52,52.04-25.61
			c9.28,2.1,16.62,5.47,22.37,9.48c7.82-31.01,19.77-76.09,26.74-91.25c14.49-31.54,41.15-47.41,69.69-41.45
			c11.6,2.43,20.29,7.77,26.7,13.74c11.88-25.57,35.07-60.8,71.66-56.8c23.51,2.58,40.74,10.8,51.19,24.43
			c9.23,12.04,12.51,27.24,9.73,45.17c-0.88,5.71-7.5,27.94-12.91,45.59c10.93,1.05,24.4,5.52,37.91,18.04
			c30,27.8,12.14,76.92-8.54,133.79l-2.24,6.18c-13.6,37.5-56.63,168.79-81.23,244.2l95.11-96.98
			c12.46-15.61,44.15-37.96,78.71-14.77c41.89,28.11-2.43,112.6-12.16,129.94l-102.95,201.72l173.7,68.65
			c3.59,1.42,6.4,4.31,7.7,7.95c1.31,3.63,0.99,7.65-0.89,11.03l-172.27,311.5C1355.93,1528.68,1351.38,1531.24,1346.61,1531.24z"/>
	</g>
	<g>
		<path class="st1" d="M1052.07,825.23c-1.13,0-2.27-0.15-3.41-0.44c-7.17-1.88-11.46-9.22-9.59-16.38l56.23-214.81
			c1.88-7.18,9.21-11.44,16.38-9.59c7.17,1.88,11.46,9.22,9.59,16.38l-56.23,214.81C1063.47,821.23,1058.03,825.23,1052.07,825.23z"
			/>
	</g>
	<g>
		<path class="st1" d="M1132.4,836.83c-1.18,0-2.39-0.16-3.58-0.49c-7.15-1.98-11.33-9.37-9.36-16.51l96.69-349.89
			c1.97-7.15,9.34-11.34,16.51-9.36c7.15,1.98,11.33,9.37,9.36,16.51l-96.69,349.89C1143.69,832.93,1138.29,836.83,1132.4,836.83z"
			/>
	</g>
	<g>
		<path class="st1" d="M1212.72,848.43c-1.51,0-3.05-0.26-4.55-0.8c-6.97-2.51-10.59-10.2-8.08-17.17l113.95-316.56
			c2.51-6.97,10.22-10.59,17.17-8.08c6.97,2.51,10.59,10.2,8.08,17.17l-113.95,316.56C1223.38,845.03,1218.22,848.43,1212.72,848.43
			z"/>
	</g>
	<g>
		<g>
			<path class="st2" d="M316.89,1191.2c-48.13-76.15-101.54-118.87-143.58-106.28c-46.8,14.02-67.68,93.08-60.05,199.28
				L316.89,1191.2z"/>
			<path class="st1" d="M113.27,1297.61c-2.37,0-4.74-0.63-6.85-1.88c-3.78-2.24-6.22-6.2-6.54-10.58
				c-8.46-117.85,17.55-197.51,69.59-213.09c47.04-14.08,104.9,26.73,158.77,111.97c2.07,3.28,2.62,7.29,1.52,11
				c-1.11,3.71-3.76,6.77-7.29,8.38l-203.63,92.99C117.07,1297.21,115.16,1297.61,113.27,1297.61z M188.28,1096.19
				c-3.86,0-7.57,0.52-11.11,1.58c-35.49,10.63-55.13,74.95-51.59,166.04l171.54-78.34
				C258.83,1128.85,218.84,1096.19,188.28,1096.19z"/>
		</g>
		<g>
			<path class="st2" d="M252.36,1684.05c42.47,57.32,87.16,87.63,123.39,76.77c38.63-11.57,59.57-67.48,61.44-146.34L252.36,1684.05
				z"/>
			<path class="st1" d="M360.68,1776.43c-36.68,0-78.22-29.22-119.1-84.39c-2.51-3.38-3.28-7.74-2.09-11.78
				c1.19-4.04,4.21-7.28,8.15-8.77l184.83-69.57c4.18-1.57,8.86-0.96,12.5,1.61c3.64,2.58,5.75,6.8,5.65,11.27
				c-2.11,89.37-27.33,145.8-71,158.88C373.47,1775.52,367.15,1776.43,360.68,1776.43z M274.12,1690.2
				c36.42,44.69,71.55,65.58,97.78,57.78c27.87-8.35,46.42-50.32,50.93-113.75L274.12,1690.2z"/>
		</g>
	</g>
	<g>
		<g>
			<path class="st3" d="M1929.1,1345.73c39.46-101.7,43.6-184.38,3.38-211.07c-47.51-31.53-142.98,24.39-236,130.25L1929.1,1345.73z
				"/>
			<path class="st1" d="M1929.11,1359.16c-1.46,0-2.95-0.24-4.4-0.75l-232.62-80.82c-4.22-1.46-7.43-4.93-8.57-9.25
				c-1.14-4.32-0.06-8.93,2.89-12.28c102.97-117.19,200.09-168,253.51-132.57c45.39,30.12,46.02,112.9,1.71,227.11
				C1939.56,1355.89,1934.5,1359.16,1929.11,1359.16z M1719.99,1258.87l201.17,69.9c33.27-91.16,35.01-162.28,3.92-182.92
				C1887.59,1120.98,1804.64,1167.19,1719.99,1258.87z"/>
		</g>
		<g>
			<path class="st3" d="M1512.95,1581.2c-24.92,81.72-23,145.61,11.43,168.46c40.89,27.13,117.3-10.53,197.09-89.01L1512.95,1581.2z
				"/>
			<path class="st1" d="M1555.46,1771.67c-14.59,0-27.54-3.56-38.49-10.83c-39.06-25.92-45.04-91.11-16.85-183.56
				c1.09-3.55,3.6-6.5,6.94-8.14c3.34-1.64,7.21-1.81,10.68-0.49l208.52,79.45c4.27,1.63,7.42,5.32,8.36,9.79
				c0.93,4.47-0.47,9.12-3.73,12.32C1663.75,1736.24,1601.48,1771.67,1555.46,1771.67z M1521.79,1598.93
				c-19.36,70.73-15.82,122.41,10.01,139.55c30.92,20.53,94.6-7.96,165.01-72.87L1521.79,1598.93z"/>
		</g>
	</g>
	<g>
		<path class="st1" d="M431.14,501.41c-3.31,0-6.63-1.22-9.22-3.67l-265.39-251c-5.38-5.1-5.62-13.59-0.53-18.97
			c5.1-5.38,13.59-5.62,18.97-0.53l265.39,251c5.38,5.1,5.62,13.59,0.53,18.97C438.25,500,434.7,501.41,431.14,501.41z"/>
	</g>
	<g>
		<path class="st1" d="M368.08,639.58c-0.96,0-1.93-0.1-2.91-0.33L10.52,560.7c-7.23-1.6-11.8-8.77-10.2-16
			c1.6-7.23,8.73-11.83,16-10.2l354.65,78.55c7.23,1.6,11.8,8.77,10.2,16C379.79,635.31,374.24,639.58,368.08,639.58z"/>
	</g>
	<g>
		<path class="st1" d="M1590.29,486.94c-4.6,0-9.07-2.36-11.58-6.62c-3.76-6.39-1.63-14.61,4.76-18.37l312.99-184.16
			c6.37-3.76,14.61-1.63,18.37,4.76c3.76,6.39,1.63,14.61-4.76,18.37l-312.99,184.16C1594.95,486.34,1592.6,486.94,1590.29,486.94z"
			/>
	</g>
	<g>
		<path class="st1" d="M1629.54,666.94c-6.93,0-12.8-5.33-13.36-12.35c-0.59-7.39,4.92-13.86,12.31-14.45l357.03-28.56
			c7.33-0.51,13.86,4.92,14.45,12.31c0.59,7.39-4.92,13.86-12.31,14.45l-357.03,28.56C1630.26,666.92,1629.9,666.94,1629.54,666.94z
			"/>
	</g>
</g>
</svg>
