<svg width="64" height="64" viewBox="0 0 64 64" fill="none" xmlns="http://www.w3.org/2000/svg">
<g clip-path="url(#clip0_1_81)">
<path d="M11.534 4.08772L9.06884 9.06622C8.92283 9.36113 8.7081 9.61664 8.44274 9.81125C8.17737 10.0059 7.86913 10.1339 7.54397 10.1845L1.93197 11.0582C0.966595 11.2085 0.596595 12.4036 1.30822 13.0731L5.32384 16.8505C5.57173 17.0837 5.75781 17.3748 5.86535 17.6977C5.97289 18.0205 5.99853 18.3651 5.93997 18.7003L4.95659 24.3283C4.78697 25.2992 5.81709 26.0343 6.67997 25.5582L11.5935 22.8471C11.8974 22.6794 12.2388 22.5914 12.5859 22.5914C12.933 22.5914 13.2744 22.6794 13.5783 22.8471L18.4918 25.5582C19.3548 26.0343 20.385 25.2993 20.2152 24.3283L19.2318 18.7003C19.1128 18.0193 19.3443 17.3241 19.848 16.8505L23.8636 13.0731C24.5752 12.4036 24.2053 11.2085 23.2398 11.0582L17.6278 10.1845C17.3027 10.1339 16.9944 10.0059 16.7291 9.81126C16.4637 9.61665 16.249 9.36114 16.103 9.06622L13.6378 4.08772C13.2067 3.2171 11.9651 3.2171 11.534 4.08772ZM52.466 4.08772L54.9311 9.06622C55.0771 9.36113 55.2918 9.61664 55.5572 9.81125C55.8226 10.0059 56.1308 10.1339 56.456 10.1845L62.068 11.0582C63.0333 11.2085 63.4033 12.4036 62.6917 13.0731L58.6761 16.8505C58.4282 17.0837 58.2421 17.3748 58.1346 17.6977C58.027 18.0205 58.0014 18.3651 58.06 18.7003L59.0433 24.3283C59.213 25.2992 58.1828 26.0343 57.32 25.5582L52.4065 22.8471C52.1026 22.6794 51.7611 22.5914 51.414 22.5914C51.0669 22.5914 50.7255 22.6794 50.4216 22.8471L45.5081 25.5582C44.6451 26.0343 43.615 25.2993 43.7847 24.3283L44.7681 18.7003C44.8871 18.0193 44.6556 17.3241 44.152 16.8505L40.1363 13.0731C39.4247 12.4036 39.7946 11.2085 40.7601 11.0582L46.3721 10.1845C46.6973 10.1339 47.0055 10.0059 47.2709 9.81126C47.5362 9.61665 47.751 9.36114 47.897 9.06622L50.3621 4.08772C50.7932 3.2171 52.0348 3.2171 52.466 4.08772Z" fill="#FFC344"/>
<path d="M34.0173 1.72088L38.7445 11.2681C39.0245 11.8337 39.4363 12.3237 39.9452 12.6969C40.4541 13.0701 41.0452 13.3155 41.6688 13.4126L51.7365 14.9801L53.4136 16.5506L45.9261 26.1957C45.4508 26.6429 45.094 27.2012 44.8877 27.8204C44.6815 28.4396 44.6323 29.1003 44.7446 29.7432L46.6305 40.5359C46.9559 42.3977 44.9804 43.8074 43.3255 42.8942L33.903 37.6951C33.3202 37.3736 32.6655 37.2049 31.9999 37.2049C31.3343 37.2049 30.6795 37.3736 30.0968 37.6951L20.6743 42.8942C19.0194 43.8074 17.044 42.3977 17.3693 40.5359L19.2551 29.7432C19.3675 29.1003 19.3184 28.4396 19.1121 27.8204C18.9059 27.2012 18.549 26.6429 18.0736 26.1957L10.3729 18.9521C9.00814 17.6684 9.71752 15.3765 11.5689 15.0883L22.331 13.4126C22.9546 13.3155 23.5457 13.0701 24.0546 12.6969C24.5635 12.3237 24.9753 11.8337 25.2553 11.2681L29.9825 1.72088C30.8094 0.051375 33.1906 0.051375 34.0173 1.72088Z" fill="#FFE177"/>
<path d="M52.4309 15.0882L51.7367 14.9801C52.2724 15.8344 52.2279 17.0266 51.3769 17.8271L43.6763 25.0707C43.2009 25.5179 42.8441 26.0762 42.6379 26.6954C42.4316 27.3146 42.3825 27.9753 42.4948 28.6182L44.3807 39.4109C44.6643 41.0339 43.1995 42.3131 41.7229 42.0099L43.3258 42.8942C44.9807 43.8074 46.956 42.3977 46.6308 40.5359L44.7449 29.7432C44.6325 29.1003 44.6817 28.4396 44.8879 27.8204C45.0941 27.2011 45.451 26.6429 45.9264 26.1957L53.627 18.9521C54.9917 17.6684 54.2823 15.3765 52.4309 15.0882Z" fill="#FFD15B"/>
<path d="M9.67389 27.082C9.67389 29.2264 11.4123 30.9647 13.5566 30.9647C15.701 30.9647 17.4394 29.2264 17.4394 27.082C17.4394 27.0459 17.4389 27.01 17.4379 26.9741C17.3808 24.8796 12.9193 23.2387 12.619 23.3131C10.9276 23.7325 9.67389 25.2609 9.67389 27.082ZM20.5474 41.7611L18.377 43.1797L13.5566 42.4815L8.73639 43.1797H6.41602C6.25026 43.1797 6.09128 43.1139 5.97407 42.9967C5.85686 42.8795 5.79102 42.7205 5.79102 42.5547V37.5975C5.79102 35.3195 7.63777 33.4727 9.91577 33.4727H17.1974C17.8304 33.4718 18.455 33.6171 19.0225 33.8975C20.3851 34.5708 20.7255 36.4404 20.7255 38.0632L23.2636 39.297L20.5474 41.7611Z" fill="#91DEB6"/>
<path d="M21.3223 37.5974C21.3223 35.9747 20.3851 34.5708 19.0225 33.8974C19.3028 34.4649 19.4482 35.0895 19.4473 35.7224V40.6797C19.4473 40.8454 19.3814 41.0044 19.2642 41.1216C19.147 41.2388 18.988 41.3047 18.8223 41.3047H5.79102V42.5547C5.79102 42.7204 5.85686 42.8794 5.97407 42.9966C6.09128 43.1138 6.25026 43.1797 6.41602 43.1797H8.73639L9.67389 42.8378L10.6114 43.1797H16.502L17.4395 42.6484L18.377 43.1797H21.3223L23.2636 39.2969L21.3223 37.5974Z" fill="#6ED5A1"/>
<path d="M54.3261 27.082C54.3261 29.2264 52.5878 30.9648 50.4434 30.9648C48.299 30.9648 46.5606 29.2264 46.5606 27.082C46.5606 25.2609 47.8144 23.7325 49.5059 23.3131C49.8061 23.2386 52.9653 23.8783 53.6631 24.9111C54.0964 25.5521 54.3274 26.3083 54.3261 27.082ZM42.6778 41.3046L57.584 43.1796C57.7498 43.1796 57.9087 43.1138 58.026 42.9966C58.1432 42.8794 58.209 42.7204 58.209 42.5546V37.5974C58.209 35.3194 56.3623 33.4726 54.0843 33.4726H46.8025C44.5245 33.4726 42.6778 35.3194 42.6778 37.5974L40.7364 39.2968L42.6778 41.3046Z" fill="#7BACDF"/>
<path d="M55.9092 33.8974C56.1895 34.4649 56.3349 35.0895 56.334 35.7224V40.6797C56.334 40.8454 56.2681 41.0044 56.1509 41.1216C56.0337 41.2388 55.8747 41.3047 55.709 41.3047H41.7402L42.6777 43.1797H45.623L46.5605 41.9297L47.498 43.1797H53.3886L54.3379 41.9297L55.2636 43.1797H57.5839C57.7496 43.1797 57.9086 43.1138 58.0258 42.9966C58.143 42.8794 58.2089 42.7204 58.2089 42.5547V37.5974C58.209 35.9747 57.2719 34.5708 55.9092 33.8974Z" fill="#5F99D7"/>
<path d="M42.1118 42.2958L22.0325 42.5928L21.3223 41.3046V35.9063C21.3223 33.49 23.281 31.5313 25.6973 31.5313H38.3028C39.0027 31.5302 39.6926 31.6978 40.314 32.02C41.7183 32.7481 42.1118 42.2958 42.1118 42.2958Z" fill="#978ECB"/>
<path d="M40.314 32.02C40.6361 32.6414 40.8038 33.3313 40.8028 34.0313V40.6798C40.8028 40.8455 40.7369 41.0045 40.6197 41.1217C40.5025 41.2389 40.3435 41.3048 40.1778 41.3048H21.3223V43.1798H24.2675L25.0621 41.9298L26.1425 43.1798H37.8574L39.0523 41.9298L39.7324 43.1798H42.6776V35.9063C42.6778 34.2151 41.7183 32.7483 40.314 32.02Z" fill="#8379C1"/>
<path d="M32.3831 28.6403C32.0624 28.6403 31.3657 28.9924 31.0624 28.933C28.8305 28.4963 27.1464 26.5298 27.1464 24.17V22.2286C27.1464 19.8831 28.8101 17.9263 31.0217 17.4738C31.3377 17.4091 31.8871 17.5974 32.2222 17.5974C34.9027 17.5974 36.1265 19.5481 36.1265 22.2286V24.17C36.1265 26.8504 35.0637 28.6403 32.3831 28.6403Z" fill="#978ECB"/>
<path d="M13.5566 23.1992C13.2334 23.1992 12.9194 23.2387 12.6191 23.3132C14.3106 23.7326 15.5644 25.2608 15.5644 27.0821C15.5644 28.9033 14.3105 30.4315 12.6191 30.851C12.9194 30.9255 13.2334 30.965 13.5566 30.965C15.701 30.965 17.4394 29.2266 17.4394 27.0822C17.4394 24.9378 15.701 23.1992 13.5566 23.1992Z" fill="#6ED5A1"/>
<path d="M50.4434 23.1992C50.1201 23.1992 49.8061 23.2387 49.5059 23.3132C51.1974 23.7326 52.4511 25.2608 52.4511 27.0821C52.4511 28.9033 51.1972 30.4315 49.5059 30.851C49.8061 30.9255 50.1201 30.965 50.4434 30.965C52.5877 30.965 54.3261 29.2266 54.3261 27.0822C54.3261 24.9378 52.5877 23.1992 50.4434 23.1992Z" fill="#5F99D7"/>
<path d="M32 17.375C31.6793 17.375 31.3659 17.4062 31.0625 17.4655C33.2944 17.9022 34.9785 19.8686 34.9785 22.2285V24.1699C34.9785 26.5296 33.2944 28.496 31.0625 28.9329C31.3659 28.9922 31.6793 29.0234 32 29.0234C34.6805 29.0234 36.8535 26.8504 36.8535 24.1699V22.2285C36.8535 19.548 34.6805 17.375 32 17.375Z" fill="#8379C1"/>
<path d="M10.6114 43.1796V39.2969C10.6114 39.0482 10.5126 38.8098 10.3368 38.634C10.161 38.4581 9.92253 38.3594 9.67389 38.3594C9.42525 38.3594 9.18679 38.4581 9.01098 38.634C8.83516 38.8098 8.73639 39.0482 8.73639 39.2969V43.1796H10.6114ZM18.377 39.2969C18.377 39.0482 18.2782 38.8098 18.1024 38.634C17.9266 38.4581 17.6882 38.3594 17.4395 38.3594C17.1909 38.3594 16.9524 38.4581 16.7766 38.634C16.6008 38.8098 16.502 39.0482 16.502 39.2969V43.1796H18.377V39.2969Z" fill="#46CC8D"/>
<path d="M55.2636 43.1796V39.2969C55.2636 39.0482 55.1648 38.8098 54.989 38.634C54.8132 38.4581 54.5748 38.3594 54.3261 38.3594C54.0775 38.3594 53.839 38.4581 53.6632 38.634C53.4874 38.8098 53.3886 39.0482 53.3886 39.2969V43.1796H55.2636ZM47.498 43.1796V39.2969C47.498 39.0482 47.3992 38.8098 47.2234 38.634C47.0476 38.4581 46.8091 38.3594 46.5605 38.3594C46.3118 38.3594 46.0734 38.4581 45.8976 38.634C45.7218 38.8098 45.623 39.0482 45.623 39.2969V43.1796H47.498Z" fill="#3C87D0"/>
<path d="M48.5801 56.0324H48.5709C48.3223 56.0348 48.0848 56.1359 47.9107 56.3134C47.7366 56.4909 47.6401 56.7303 47.6425 56.9789L47.6683 59.6409L45.463 56.4475C45.3495 56.2829 45.1863 56.1589 44.9973 56.0936C44.8083 56.0283 44.6033 56.0252 44.4124 56.0848C44.2215 56.1443 44.0547 56.2633 43.9362 56.4244C43.8178 56.5855 43.754 56.7803 43.7541 56.9803V62.5937C43.7541 62.8423 43.8529 63.0808 44.0287 63.2566C44.2045 63.4324 44.443 63.5312 44.6916 63.5312C44.9403 63.5312 45.1787 63.4324 45.3545 63.2566C45.5304 63.0808 45.6291 62.8423 45.6291 62.5937V59.9877L47.716 63.0097C47.9782 63.3883 48.4367 63.5543 48.8566 63.4232C49.29 63.2878 49.57 62.8878 49.57 62.395L49.5175 56.9607C49.515 56.7137 49.4152 56.4776 49.2397 56.3038C49.0642 56.13 48.8271 56.0325 48.5801 56.0324ZM34.845 56.0324C34.5964 56.0324 34.3579 56.1312 34.1821 56.307C34.0063 56.4828 33.9075 56.7213 33.9075 56.9699V62.5938C33.9075 62.8424 34.0063 63.0809 34.1821 63.2567C34.3579 63.4325 34.5964 63.5313 34.845 63.5313C35.0936 63.5313 35.3321 63.4325 35.5079 63.2567C35.6837 63.0809 35.7825 62.8424 35.7825 62.5938V56.9699C35.7825 56.7213 35.6837 56.4828 35.5079 56.307C35.3321 56.1312 35.0936 56.0324 34.845 56.0324ZM3.2855 57.933C3.53414 57.933 3.7726 57.8343 3.94841 57.6584C4.12423 57.4826 4.223 57.2442 4.223 56.9955C4.223 56.7469 4.12423 56.5084 3.94841 56.3326C3.7726 56.1568 3.53414 56.058 3.2855 56.058H0.9375C0.68886 56.058 0.450403 56.1568 0.274587 56.3326C0.098772 56.5084 0 56.7469 0 56.9955L0 62.5682C0 62.8168 0.098772 63.0553 0.274587 63.2311C0.450403 63.4069 0.68886 63.5057 0.9375 63.5057H3.2855C3.53414 63.5057 3.7726 63.4069 3.94841 63.2311C4.12423 63.0553 4.223 62.8168 4.223 62.5682C4.223 62.3195 4.12423 62.0811 3.94841 61.9052C3.7726 61.7294 3.53414 61.6307 3.2855 61.6307H1.875V60.7194H3.11238C3.36102 60.7194 3.59947 60.6206 3.77529 60.4448C3.9511 60.269 4.04987 60.0305 4.04987 59.7819C4.04987 59.5333 3.9511 59.2948 3.77529 59.119C3.59947 58.9432 3.36102 58.8444 3.11238 58.8444H1.875V57.933H3.2855ZM24.3057 57.707C24.5544 57.707 24.7928 57.6083 24.9687 57.4324C25.1445 57.2566 25.2432 57.0182 25.2432 56.7695C25.2432 56.5209 25.1445 56.2824 24.9687 56.1066C24.7928 55.9308 24.5544 55.832 24.3057 55.832H21.9578C21.7091 55.832 21.4707 55.9308 21.2948 56.1066C21.119 56.2824 21.0203 56.5209 21.0203 56.7695V62.568C21.0203 62.8167 21.119 63.0551 21.2948 63.2309C21.4707 63.4068 21.7091 63.5055 21.9578 63.5055H24.3057C24.5544 63.5055 24.7928 63.4068 24.9687 63.2309C25.1445 63.0551 25.2432 62.8167 25.2432 62.568C25.2432 62.3194 25.1445 62.0809 24.9687 61.9051C24.7928 61.7293 24.5544 61.6305 24.3057 61.6305H22.8953V60.7193H24.1326C24.3813 60.7193 24.6197 60.6205 24.7955 60.4447C24.9714 60.2689 25.0701 60.0304 25.0701 59.7818C25.0701 59.5331 24.9714 59.2947 24.7955 59.1189C24.6197 58.9431 24.3813 58.8443 24.1326 58.8443H22.8953V57.707H24.3057ZM40.9422 57.933C41.1909 57.933 41.4293 57.8343 41.6052 57.6584C41.781 57.4826 41.8797 57.2442 41.8797 56.9955C41.8797 56.7469 41.781 56.5084 41.6052 56.3326C41.4293 56.1568 41.1909 56.058 40.9422 56.058H38.5942C38.3456 56.058 38.1072 56.1568 37.9313 56.3326C37.7555 56.5084 37.6567 56.7469 37.6567 56.9955V62.5682C37.6567 62.8168 37.7555 63.0553 37.9313 63.2311C38.1072 63.4069 38.3456 63.5057 38.5942 63.5057H40.9422C41.1909 63.5057 41.4293 63.4069 41.6052 63.2311C41.781 63.0553 41.8797 62.8168 41.8797 62.5682C41.8797 62.3195 41.781 62.0811 41.6052 61.9052C41.4293 61.7294 41.1909 61.6307 40.9422 61.6307H39.5317V60.7194H40.7691C41.0178 60.7194 41.2562 60.6206 41.432 60.4448C41.6079 60.269 41.7066 60.0305 41.7066 59.7819C41.7066 59.5333 41.6079 59.2948 41.432 59.119C41.2562 58.9432 41.0178 58.8444 40.7691 58.8444H39.5317V57.933H40.9422ZM63.0625 61.6305H61.652V60.7193H62.8894C63.138 60.7193 63.3765 60.6205 63.5523 60.4447C63.7281 60.2689 63.8269 60.0304 63.8269 59.7818C63.8269 59.5331 63.7281 59.2947 63.5523 59.1189C63.3765 58.9431 63.138 58.8443 62.8894 58.8443H61.652V57.9329H63.0625C63.3111 57.9329 63.5496 57.8341 63.7254 57.6583C63.9012 57.4825 64 57.244 64 56.9954C64 56.7468 63.9012 56.5083 63.7254 56.3325C63.5496 56.1567 63.3111 56.0579 63.0625 56.0579H60.7145C60.4659 56.0579 60.2274 56.1567 60.0516 56.3325C59.8758 56.5083 59.777 56.7468 59.777 56.9954V62.568C59.777 62.8167 59.8758 63.0551 60.0516 63.2309C60.2274 63.4068 60.4659 63.5055 60.7145 63.5055H63.0625C63.3111 63.5055 63.5496 63.4068 63.7254 63.2309C63.9012 63.0551 64 62.8167 64 62.568C64 62.3194 63.9012 62.0809 63.7254 61.9051C63.5496 61.7293 63.3111 61.6305 63.0625 61.6305ZM57.5675 61.0815C57.4732 61.0024 57.3642 60.9426 57.2468 60.9056C57.1293 60.8686 57.0058 60.8551 56.8831 60.8659C56.7605 60.8767 56.6412 60.9115 56.532 60.9685C56.4228 61.0254 56.3259 61.1033 56.2469 61.1977C56.2053 61.2473 56.1604 61.2937 56.1135 61.3354C55.8744 61.5484 55.565 61.6563 55.1937 61.6563C54.1601 61.6563 53.3192 60.8154 53.3192 59.7818C53.3192 58.7482 54.1601 57.9073 55.1937 57.9073C55.5695 57.9073 55.9316 58.0178 56.2411 58.2269C56.4472 58.3661 56.7001 58.4177 56.9442 58.3704C57.1883 58.3231 57.4036 58.1808 57.5428 57.9748C57.6117 57.8728 57.6598 57.7582 57.6845 57.6375C57.7091 57.5169 57.7097 57.3926 57.6863 57.2717C57.6629 57.1509 57.6159 57.0358 57.548 56.9331C57.4801 56.8304 57.3927 56.7421 57.2906 56.6732C56.6716 56.2544 55.941 56.0311 55.1936 56.0323C53.1261 56.0323 51.4441 57.7143 51.4441 59.7818C51.4441 61.8493 53.1261 63.5313 55.1936 63.5313C56.0268 63.5313 56.776 63.256 57.3604 62.7355C57.476 62.6324 57.5839 62.521 57.6834 62.4023C57.7625 62.308 57.8223 62.199 57.8593 62.0815C57.8963 61.9641 57.9098 61.8406 57.899 61.7179C57.8883 61.5953 57.8534 61.4759 57.7966 61.3667C57.7397 61.2575 57.6618 61.1606 57.5675 61.0815ZM10.303 59.5824L11.7631 57.5097C11.9021 57.3063 11.9554 57.0563 11.9116 56.8139C11.8678 56.5715 11.7303 56.3561 11.5289 56.2142C11.3275 56.0724 11.0784 56.0154 10.8354 56.0558C10.5924 56.0961 10.375 56.2305 10.2303 56.4298L9.157 57.9533L8.08562 56.4303C7.94033 56.2326 7.72335 56.0997 7.48123 56.0602C7.23911 56.0206 6.99114 56.0775 6.79049 56.2187C6.58984 56.3599 6.45249 56.574 6.40791 56.8153C6.36332 57.0565 6.41505 57.3056 6.552 57.5092L8.00988 59.5817L6.26837 62.0538C6.12517 62.2571 6.06859 62.5089 6.11107 62.7539C6.15354 62.9989 6.2916 63.217 6.49487 63.3602C6.69815 63.5034 6.94998 63.5599 7.19497 63.5175C7.43996 63.475 7.65805 63.3369 7.80125 63.1337L9.15588 61.2107L10.5083 63.1332C10.5948 63.2563 10.7097 63.3568 10.8433 63.4261C10.977 63.4955 11.1253 63.5315 11.2759 63.5313C11.4475 63.5312 11.6158 63.4839 11.7624 63.3947C11.9091 63.3055 12.0284 63.1778 12.1074 63.0254C12.1864 62.873 12.2221 62.7019 12.2105 62.5307C12.199 62.3594 12.1406 62.1946 12.0419 62.0543L10.303 59.5824ZM32.0331 58.4314C32.0331 57.1085 30.9199 56.0323 29.5514 56.0323H28.0551C27.8065 56.0323 27.568 56.1311 27.3922 56.3069C27.2164 56.4827 27.1176 56.7211 27.1176 56.9698V62.5937C27.1176 62.8423 27.2164 63.0808 27.3922 63.2566C27.568 63.4324 27.8065 63.5312 28.0551 63.5312C28.3038 63.5312 28.5422 63.4324 28.718 63.2566C28.8939 63.0808 28.9926 62.8423 28.9926 62.5937V61.623L30.392 63.213C30.4799 63.3132 30.5882 63.3934 30.7097 63.4482C30.8311 63.5031 30.9629 63.5314 31.0961 63.5312C31.2764 63.5311 31.4529 63.479 31.6044 63.3812C31.7558 63.2834 31.8759 63.144 31.9501 62.9796C32.0243 62.8153 32.0496 62.6331 32.0229 62.4548C31.9962 62.2765 31.9186 62.1096 31.7995 61.9743L30.5964 60.6073C31.4441 60.2254 32.0331 59.3937 32.0331 58.4314ZM29.5514 57.9074C29.8746 57.9074 30.1581 58.1523 30.1581 58.4315C30.1581 58.7108 29.8746 58.9555 29.5514 58.9555C29.4166 58.9555 29.2132 58.9562 28.9996 58.9572L28.997 57.9074H29.5514ZM16.5904 56.0324H15.0245L15.001 56.0327C14.751 56.0388 14.5254 56.1428 14.3608 56.3078L14.3605 56.308L14.3584 56.3102C14.3483 56.3202 14.3385 56.3305 14.329 56.3412L14.326 56.3445L14.3135 56.3588L14.3118 56.3608L14.2986 56.3764L14.297 56.3784L14.2839 56.3949L14.2836 56.3952C14.1747 56.5351 14.108 56.7032 14.0913 56.8798V56.8799C14.0905 56.8872 14.09 56.8944 14.0894 56.9018L14.089 56.9084L14.088 56.9242L14.0875 56.9359L14.0871 56.9473L14.087 56.9619L14.0869 56.9697V62.5935C14.0869 62.8422 14.1856 63.0806 14.3615 63.2564C14.5373 63.4323 14.7757 63.531 15.0244 63.531C15.273 63.531 15.5115 63.4323 15.6873 63.2564C15.8631 63.0806 15.9619 62.8422 15.9619 62.5935V61.0833C16.2036 61.0822 16.4388 61.0813 16.5903 61.0813C17.9994 61.0813 19.1459 59.9488 19.1459 58.5567C19.146 57.1649 17.9995 56.0324 16.5904 56.0324ZM16.5904 59.2065C16.4399 59.2065 16.2076 59.2074 15.9679 59.2085L15.9648 57.9074H16.5905C16.9595 57.9074 17.2711 58.2048 17.2711 58.5569C17.2711 58.909 16.9593 59.2065 16.5904 59.2065Z" fill="#FFE177"/>
<path d="M25.2051 36.418C24.9565 36.418 24.718 36.5167 24.5422 36.6926C24.3664 36.8684 24.2676 37.1068 24.2676 37.3555V43.1797H26.1426V37.3555C26.1426 37.1068 26.0439 36.8684 25.8681 36.6926C25.6922 36.5167 25.4538 36.418 25.2051 36.418ZM39.7324 37.3555C39.7324 37.1068 39.6336 36.8684 39.4578 36.6926C39.282 36.5167 39.0435 36.418 38.7949 36.418C38.5462 36.418 38.3078 36.5167 38.132 36.6926C37.9562 36.8684 37.8574 37.1068 37.8574 37.3555V43.1797H39.7324V37.3555Z" fill="#6E61B6"/>
<path d="M48.218 47.0706C48.1709 46.8397 48.0487 46.6309 47.8705 46.4767C47.6922 46.3225 47.468 46.2317 47.2327 46.2183C46.9916 46.2045 46.7529 46.273 46.5558 46.4126C46.3587 46.5522 46.2148 46.7546 46.1477 46.9866L45.3297 49.8564L44.4803 46.9775C44.4771 46.9663 44.4735 46.9551 44.4698 46.944C44.3948 46.7205 44.2478 46.5282 44.0518 46.3972C43.8559 46.2661 43.6221 46.2036 43.3868 46.2195C42.9036 46.252 42.5021 46.6069 42.4087 47.0931L41.4011 52.6758C41.3792 52.7969 41.3814 52.9212 41.4076 53.0415C41.4338 53.1618 41.4834 53.2758 41.5536 53.3769C41.6238 53.478 41.7133 53.5644 41.8168 53.6309C41.9204 53.6975 42.0361 53.743 42.1572 53.7649C42.2784 53.7867 42.4027 53.7845 42.523 53.7584C42.6433 53.7322 42.7572 53.6826 42.8584 53.6124C42.9595 53.5422 43.0458 53.4527 43.1124 53.3491C43.179 53.2456 43.2245 53.1299 43.2463 53.0088L43.6481 50.7825L44.3212 53.064C44.3869 53.284 44.5218 53.4768 44.7059 53.6139C44.8901 53.7509 45.1136 53.8248 45.3431 53.8245H45.3487C45.579 53.8236 45.8028 53.7481 45.9866 53.6093C46.1703 53.4705 46.3041 53.2759 46.368 53.0546L47.0175 50.7761L47.446 53.0184C47.4691 53.1393 47.5157 53.2545 47.5833 53.3574C47.651 53.4603 47.7382 53.5489 47.84 53.618C47.9419 53.6872 48.0564 53.7356 48.1769 53.7606C48.2975 53.7855 48.4218 53.7864 48.5427 53.7632C48.7869 53.7166 49.0026 53.5748 49.1423 53.3691C49.282 53.1635 49.3343 52.9107 49.2876 52.6665L48.218 47.0706ZM54.6731 48C54.9217 48 55.1602 47.9012 55.336 47.7254C55.5118 47.5496 55.6106 47.3111 55.6106 47.0625C55.6106 46.8139 55.5118 46.5754 55.336 46.3996C55.1602 46.2238 54.9217 46.125 54.6731 46.125H52.219C51.9703 46.125 51.7319 46.2238 51.5561 46.3996C51.3802 46.5754 51.2815 46.8139 51.2815 47.0625V52.8867C51.2815 53.1354 51.3802 53.3738 51.5561 53.5497C51.7319 53.7255 51.9703 53.8242 52.219 53.8242H54.6731C54.9217 53.8242 55.1602 53.7255 55.336 53.5497C55.5118 53.3738 55.6106 53.1354 55.6106 52.8867C55.6106 52.6381 55.5118 52.3997 55.336 52.2238C55.1602 52.048 54.9217 51.9492 54.6731 51.9492H53.1565V50.9121H54.4921C54.7407 50.9121 54.9792 50.8134 55.155 50.6375C55.3308 50.4617 55.4296 50.2233 55.4296 49.9746C55.4296 49.726 55.3308 49.4875 55.155 49.3117C54.9792 49.1359 54.7407 49.0371 54.4921 49.0371H53.1565V48H54.6731ZM7.62497 51.3594C7.43451 51.1996 7.18836 51.1219 6.94068 51.1436C6.69299 51.1653 6.46405 51.2844 6.30422 51.4749C6.26097 51.5264 6.2146 51.5744 6.16622 51.6175C5.9191 51.8376 5.5996 51.9492 5.2166 51.9492C4.1531 51.9492 3.28772 51.084 3.28772 50.0204C3.28772 48.9567 4.15297 48.0915 5.2166 48.0915C5.60335 48.0915 5.97597 48.2052 6.29435 48.4202C6.39635 48.4892 6.51094 48.5374 6.63157 48.562C6.75219 48.5867 6.87649 48.5873 6.99737 48.5639C7.11824 48.5405 7.23332 48.4935 7.33604 48.4256C7.43875 48.3577 7.52707 48.2703 7.59597 48.1683C7.66491 48.0662 7.71307 47.9517 7.73771 47.831C7.76235 47.7104 7.76299 47.5861 7.73959 47.4652C7.71619 47.3444 7.66921 47.2293 7.60133 47.1266C7.53345 47.0239 7.446 46.9355 7.34397 46.8666C6.71594 46.4417 5.97476 46.2151 5.21647 46.2164C3.1191 46.2164 1.4126 47.9227 1.4126 50.0202C1.4126 52.1177 3.11897 53.8241 5.21647 53.8241C6.0611 53.8241 6.8206 53.5452 7.4131 53.0176C7.53025 52.9132 7.63966 52.8004 7.74047 52.6801C7.90029 52.4897 7.97791 52.2435 7.95625 51.9958C7.93459 51.7481 7.81543 51.5192 7.62497 51.3594ZM21.611 49.1847C20.9466 48.9397 20.3253 48.6736 20.095 48.5732C20.0575 48.5339 20.043 48.4824 20.052 48.4196C20.07 48.2944 20.1796 48.1927 20.353 48.1405C20.8372 47.9947 21.3965 48.2024 21.7358 48.4729C21.8321 48.5496 21.9425 48.6067 22.0608 48.6408C22.1792 48.6748 22.303 48.6853 22.4254 48.6715C22.5477 48.6577 22.6661 48.62 22.7739 48.5604C22.8816 48.5008 22.9766 48.4206 23.0533 48.3244C23.1301 48.2281 23.1872 48.1177 23.2212 47.9994C23.2553 47.8811 23.2658 47.7572 23.252 47.6349C23.2382 47.5125 23.2004 47.3941 23.1409 47.2864C23.0813 47.1786 23.0011 47.0836 22.9048 47.0069C22.0102 46.2934 20.825 46.0397 19.8121 46.3451C18.9375 46.6085 18.3182 47.3012 18.1958 48.153C18.0803 48.9576 18.4293 49.7316 19.1066 50.1732C19.148 50.2002 19.1915 50.2239 19.2367 50.244C19.2702 50.259 20.0661 50.6132 20.9621 50.9437C21.2676 51.0564 21.6108 51.264 21.5726 51.4781C21.5387 51.6675 21.2662 51.9479 20.7887 51.9479C20.2803 51.9479 19.7932 51.7452 19.4856 51.406C19.3175 51.2261 19.0854 51.1195 18.8394 51.1093C18.5934 51.099 18.3532 51.186 18.1708 51.3513C17.9884 51.5166 17.8783 51.7471 17.8643 51.9929C17.8504 52.2388 17.9337 52.4802 18.0962 52.6651C18.763 53.4009 19.7445 53.8229 20.7886 53.8229C22.1038 53.8229 23.2098 52.9754 23.4183 51.8076C23.577 50.9205 23.1853 49.7655 21.611 49.1847ZM14.8437 46.2165C14.5951 46.2165 14.3566 46.3153 14.1808 46.4911C14.005 46.6669 13.9062 46.9054 13.9062 47.154V51.0988C13.9062 51.3083 13.8705 51.5191 13.4396 51.7945C13.2771 51.8984 13.0961 51.9489 12.8865 51.9492H12.8845C12.6888 51.9492 12.518 51.9111 12.3623 51.8327C11.8662 51.5827 11.7977 51.3302 11.7977 51.0946V47.1541C11.7977 46.9055 11.699 46.667 11.5231 46.4912C11.3473 46.3154 11.1089 46.2166 10.8602 46.2166C10.6116 46.2166 10.3731 46.3154 10.1973 46.4912C10.0215 46.667 9.92272 46.9055 9.92272 47.1541V51.0946C9.92272 52.1321 10.4896 52.989 11.519 53.5074C11.9365 53.7176 12.396 53.8242 12.8846 53.8242H12.889C13.4583 53.8235 13.9832 53.6721 14.449 53.3746C15.3328 52.8099 15.7811 52.0441 15.7811 51.0988V47.154C15.7811 47.0309 15.7569 46.909 15.7098 46.7952C15.6627 46.6815 15.5936 46.5782 15.5066 46.4911C15.4195 46.404 15.3162 46.335 15.2025 46.2879C15.0887 46.2407 14.9668 46.2165 14.8437 46.2165ZM29.5626 46.2165H26.3966C26.148 46.2165 25.9095 46.3153 25.7337 46.4911C25.5579 46.6669 25.4591 46.9054 25.4591 47.154C25.4591 47.4026 25.5579 47.6411 25.7337 47.8169C25.9095 47.9927 26.148 48.0915 26.3966 48.0915H27.0357V52.8866C27.0357 53.1353 27.1345 53.3737 27.3103 53.5495C27.4861 53.7254 27.7246 53.8241 27.9732 53.8241C28.2219 53.8241 28.4603 53.7254 28.6361 53.5495C28.812 53.3737 28.9107 53.1353 28.9107 52.8866V48.0915H29.5626C29.8112 48.0915 30.0497 47.9927 30.2255 47.8169C30.4013 47.6411 30.5001 47.4026 30.5001 47.154C30.5001 46.9054 30.4013 46.6669 30.2255 46.4911C30.0497 46.3153 29.8112 46.2165 29.5626 46.2165ZM61.0773 50.8174C61.966 50.4358 62.5872 49.5748 62.5872 48.5761C62.5872 47.2246 61.4492 46.125 60.0505 46.125H58.5008C58.2522 46.125 58.0138 46.2238 57.8379 46.3996C57.6621 46.5754 57.5633 46.8139 57.5633 47.0625V52.8867C57.5633 53.1354 57.6621 53.3738 57.8379 53.5497C58.0138 53.7255 58.2522 53.8242 58.5008 53.8242C58.7495 53.8242 58.9879 53.7255 59.1638 53.5497C59.3396 53.3738 59.4383 53.1354 59.4383 52.8867V51.7931L60.946 53.5061C61.0339 53.6063 61.1422 53.6865 61.2636 53.7413C61.3851 53.7962 61.5168 53.8245 61.6501 53.8242C61.8304 53.8242 62.0069 53.7721 62.1583 53.6743C62.3098 53.5765 62.4298 53.437 62.5041 53.2727C62.5783 53.1084 62.6036 52.9262 62.5769 52.7479C62.5502 52.5696 62.4726 52.4027 62.3535 52.2674L61.0773 50.8174ZM60.0505 48C60.403 48 60.7122 48.2693 60.7122 48.5761C60.7122 48.883 60.403 49.1522 60.0505 49.1522C59.9041 49.1522 59.6791 49.153 59.446 49.1541L59.443 48H60.0505ZM35.9617 46.2165C33.8643 46.2165 32.1578 47.9229 32.1578 50.0204C32.1578 52.1179 33.8642 53.8242 35.9617 53.8242C38.0592 53.8242 39.7656 52.1179 39.7656 50.0204C39.7656 47.9229 38.0592 46.2165 35.9617 46.2165ZM35.9617 51.9492C34.8982 51.9492 34.0328 51.084 34.0328 50.0204C34.0328 48.9567 34.8981 48.0915 35.9617 48.0915C37.0253 48.0915 37.8906 48.9567 37.8906 50.0204C37.8906 51.084 37.0253 51.9492 35.9617 51.9492Z" fill="#FFE177"/>
</g>
<defs>
<clipPath id="clip0_1_81">
<rect width="64" height="64" fill="white"/>
</clipPath>
</defs>
</svg>
