<svg width="63" height="64" viewBox="0 0 63 64" fill="none" xmlns="http://www.w3.org/2000/svg">
<rect width="63" height="64" fill="#F5F5F5"/>
<g clip-path="url(#clip0_0_1)">
<path fill-rule="evenodd" clip-rule="evenodd" d="M47.1971 26.2386L40.7499 23.0715C40.666 23.0301 40.5698 23.0226 40.4806 23.0504C40.3915 23.0783 40.316 23.1395 40.2695 23.2216L36.1469 30.4756C36.0727 30.6062 36.0802 30.7595 36.1668 30.882C36.2534 31.0045 36.394 31.0606 36.5396 31.0307L40.5689 30.2046C40.6571 30.1862 40.7488 30.2012 40.8268 30.247C40.9047 30.2927 40.9634 30.3658 40.9918 30.4526L42.3021 34.4105C42.324 34.4794 42.3654 34.5402 42.4211 34.5853C42.4768 34.6304 42.5443 34.6578 42.6153 34.6641C42.6861 34.6722 42.7577 34.6589 42.8211 34.6259C42.8845 34.5929 42.9369 34.5416 42.9718 34.4785L47.3563 26.7637C47.3823 26.7194 47.3988 26.6699 47.4045 26.6185C47.4102 26.5672 47.4051 26.5152 47.3895 26.466C47.3752 26.4164 47.3506 26.3704 47.3175 26.3312C47.2843 26.292 47.2432 26.2604 47.1971 26.2386ZM49.4482 26.2386L55.8954 23.0715C55.9793 23.0301 56.0755 23.0226 56.1647 23.0504C56.2538 23.0783 56.3293 23.1395 56.3758 23.2216L60.4984 30.4756C60.5726 30.6062 60.5651 30.7595 60.4785 30.882C60.3919 31.0045 60.2512 31.0605 60.1057 31.0307L56.0764 30.2046C55.9882 30.1862 55.8965 30.2012 55.8185 30.247C55.7406 30.2927 55.6818 30.3658 55.6535 30.4526L54.3431 34.4105C54.2958 34.5535 54.1776 34.6491 54.03 34.6641C53.8823 34.6791 53.7478 34.6091 53.6736 34.4785L49.2891 26.7637C49.263 26.7194 49.2466 26.6699 49.2409 26.6185C49.2351 26.5672 49.2402 26.5152 49.2559 26.466C49.2702 26.4164 49.2947 26.3704 49.3279 26.3312C49.361 26.292 49.4021 26.2604 49.4482 26.2386Z" fill="#F44336"/>
<path d="M57.3021 24.2686C62.2651 19.2269 62.2651 11.0526 57.3021 6.01078C52.3391 0.969018 44.2925 0.969016 39.3295 6.01078C34.3666 11.0525 34.3666 19.2269 39.3295 24.2686C44.2925 29.3104 52.3391 29.3104 57.3021 24.2686Z" fill="#F29A03"/>
<path d="M48.3226 23.6339C52.9425 23.6339 56.6876 19.8293 56.6876 15.1361C56.6876 10.4429 52.9425 6.63837 48.3226 6.63837C43.7028 6.63837 39.9576 10.4429 39.9576 15.1361C39.9576 19.8293 43.7028 23.6339 48.3226 23.6339Z" fill="#F5B945"/>
<path fill-rule="evenodd" clip-rule="evenodd" d="M48.666 10.9646L49.4291 12.9334C49.4541 13.0003 49.4978 13.0584 49.5548 13.1005C49.6118 13.1426 49.6797 13.1668 49.75 13.1702L51.829 13.2992C51.9033 13.303 51.9746 13.3298 52.0333 13.376C52.0921 13.4222 52.1354 13.4856 52.1576 13.5576C52.1814 13.6291 52.183 13.7063 52.1622 13.7788C52.1414 13.8513 52.0992 13.9155 52.0413 13.9629L50.4339 15.3086C50.379 15.3534 50.3381 15.4136 50.3163 15.4817C50.2945 15.5498 50.2928 15.6229 50.3114 15.692L50.8331 17.7405C50.8719 17.8927 50.8178 18.0454 50.6927 18.1377C50.5676 18.2301 50.4079 18.2351 50.2774 18.1506L48.5208 17.0135C48.4619 16.9743 48.3929 16.9534 48.3225 16.9534C48.252 16.9534 48.1831 16.9743 48.1241 17.0135L46.3675 18.1506C46.3053 18.1919 46.2321 18.2128 46.1579 18.2105C46.0836 18.2082 46.0118 18.1828 45.9522 18.1377C45.8916 18.0941 45.8456 18.0326 45.8205 17.9615C45.7954 17.8904 45.7924 17.8132 45.8118 17.7404L46.3335 15.6919C46.352 15.6228 46.3503 15.5497 46.3285 15.4816C46.3068 15.4135 46.2659 15.3533 46.211 15.3085L44.6036 13.9627C44.4841 13.8627 44.4395 13.707 44.4873 13.5575C44.5352 13.408 44.6614 13.3086 44.8159 13.2991L46.8949 13.1701C46.9652 13.1666 47.0331 13.1424 47.0901 13.1003C47.1471 13.0582 47.1908 13.0002 47.2158 12.9332L47.979 10.9645C48.0358 10.8182 48.1678 10.7269 48.3225 10.7269C48.4771 10.7269 48.6093 10.8184 48.666 10.9646Z" fill="#FDCD56"/>
<path fill-rule="evenodd" clip-rule="evenodd" d="M7.47388 51.8103L6.33299 54.7533C6.30796 54.8202 6.26426 54.8783 6.20724 54.9203C6.15022 54.9624 6.08235 54.9867 6.01196 54.9902L2.90417 55.1829C2.74974 55.1925 2.6235 55.2918 2.57563 55.4413C2.52777 55.5908 2.57256 55.7465 2.69191 55.8465L5.09465 57.8583C5.1496 57.9031 5.19047 57.9632 5.21224 58.0313C5.23402 58.0994 5.23574 58.1725 5.2172 58.2415L4.43733 61.3037C4.41787 61.3765 4.4209 61.4537 4.44601 61.5248C4.47112 61.5958 4.51709 61.6574 4.57773 61.701C4.63733 61.7461 4.70911 61.7715 4.78338 61.7738C4.85764 61.7761 4.93081 61.7552 4.99301 61.7139L7.61883 60.0142C7.67777 59.9749 7.74671 59.954 7.81718 59.954C7.88766 59.954 7.9566 59.9749 8.01553 60.0142L10.6414 61.7139C10.7719 61.7984 10.9315 61.7934 11.0566 61.701C11.1818 61.6087 11.2358 61.4559 11.197 61.3038L10.4172 58.2415C10.3986 58.1725 10.4004 58.0994 10.4221 58.0313C10.4439 57.9632 10.4848 57.9031 10.5397 57.8583L12.9425 55.8465C13.0619 55.7465 13.1066 55.5908 13.0587 55.4413C13.0109 55.2918 12.8846 55.1925 12.7302 55.1829L9.6224 54.9902C9.55202 54.9867 9.48417 54.9624 9.42717 54.9203C9.37017 54.8783 9.32649 54.8202 9.3015 54.7533L8.16061 51.8103C8.13417 51.7397 8.08707 51.6791 8.02566 51.6366C7.96425 51.5941 7.89148 51.5718 7.81718 51.5727C7.74291 51.5719 7.67019 51.5942 7.60881 51.6367C7.54743 51.6792 7.50034 51.7398 7.47388 51.8103ZM23.6545 51.8103L22.5137 54.7533C22.4886 54.8202 22.4449 54.8783 22.3879 54.9203C22.3309 54.9624 22.263 54.9867 22.1926 54.9902L19.0848 55.1829C18.9304 55.1925 18.8042 55.2918 18.7563 55.4413C18.7084 55.5908 18.7531 55.7465 18.8726 55.8465L21.2753 57.8583C21.3303 57.9031 21.3711 57.9632 21.3929 58.0313C21.4147 58.0994 21.4164 58.1725 21.3979 58.2415L20.618 61.3037C20.5985 61.3765 20.6016 61.4537 20.6267 61.5248C20.6518 61.5958 20.6978 61.6574 20.7584 61.701C20.818 61.7461 20.8898 61.7715 20.9641 61.7738C21.0384 61.7761 21.1116 61.7552 21.1738 61.7139L23.7996 60.0142C23.8586 59.9749 23.9275 59.954 23.998 59.954C24.0684 59.954 24.1374 59.9749 24.1963 60.0142L26.8221 61.7139C26.8844 61.7552 26.9576 61.7761 27.0318 61.7738C27.1061 61.7715 27.1779 61.7461 27.2375 61.701C27.2982 61.6574 27.3441 61.5959 27.3692 61.5248C27.3943 61.4538 27.3974 61.3766 27.3779 61.3038L26.5981 58.2415C26.5795 58.1725 26.5813 58.0994 26.603 58.0313C26.6248 57.9632 26.6657 57.9031 26.7206 57.8583L29.1234 55.8465C29.2428 55.7465 29.2875 55.5908 29.2396 55.4413C29.1918 55.2918 29.0655 55.1925 28.9111 55.1829L25.8033 54.9902C25.7329 54.9867 25.6651 54.9624 25.6081 54.9203C25.5511 54.8783 25.5074 54.8202 25.4824 54.7533L24.3415 51.8103C24.3151 51.7397 24.268 51.6791 24.2066 51.6366C24.1452 51.5941 24.0724 51.5718 23.9981 51.5727C23.9238 51.5718 23.851 51.5942 23.7896 51.6366C23.7281 51.6791 23.681 51.7397 23.6545 51.8103ZM39.8352 51.8103L38.6943 54.7533C38.6693 54.8202 38.6256 54.8783 38.5686 54.9203C38.5115 54.9624 38.4437 54.9867 38.3733 54.9902L35.2655 55.1829C35.1111 55.1925 34.9848 55.2918 34.937 55.4413C34.8891 55.5908 34.9338 55.7465 35.0532 55.8465L37.456 57.8583C37.5109 57.9031 37.5518 57.9632 37.5736 58.0313C37.5953 58.0994 37.5971 58.1725 37.5785 58.2415L36.7987 61.3037C36.7792 61.3765 36.7822 61.4537 36.8073 61.5248C36.8324 61.5958 36.8784 61.6574 36.9391 61.701C36.9987 61.7461 37.0705 61.7715 37.1448 61.7738C37.219 61.7761 37.2922 61.7552 37.3545 61.7139L39.9803 60.0142C40.0392 59.9749 40.1082 59.954 40.1786 59.954C40.2491 59.954 40.318 59.9749 40.377 60.0142L43.0028 61.7139C43.1334 61.7984 43.2929 61.7934 43.4181 61.701C43.5432 61.6087 43.5972 61.4559 43.5585 61.3038L42.7786 58.2415C42.7601 58.1725 42.7618 58.0994 42.7836 58.0313C42.8053 57.9632 42.8462 57.9031 42.9012 57.8583L45.3039 55.8465C45.4234 55.7465 45.468 55.5908 45.4202 55.4413C45.3723 55.2918 45.2461 55.1925 45.0917 55.1829L41.9839 54.9902C41.9135 54.9867 41.8456 54.9624 41.7886 54.9203C41.7316 54.8783 41.6879 54.8202 41.6629 54.7533L40.5221 51.8103C40.4956 51.7397 40.4485 51.6791 40.3871 51.6366C40.3257 51.5941 40.2529 51.5718 40.1786 51.5727C40.1043 51.5718 40.0316 51.5942 39.9702 51.6367C39.9088 51.6792 39.8617 51.7398 39.8352 51.8103Z" fill="#FDCD56"/>
<path fill-rule="evenodd" clip-rule="evenodd" d="M9.98895 15.6021C9.98895 19.4693 13.0747 22.6039 16.8814 22.6039C20.6882 22.6039 23.7739 19.4693 23.7739 15.6021C23.7739 11.7361 20.6882 8.60138 16.8814 8.60138C13.0747 8.60138 9.98895 11.7361 9.98895 15.6021Z" fill="#EFC7A4"/>
<path fill-rule="evenodd" clip-rule="evenodd" d="M15.5386 26.6389H18.2244L20.5537 44.2874H13.2092L15.5386 26.6389Z" fill="#F44336"/>
<path fill-rule="evenodd" clip-rule="evenodd" d="M19.6436 28.0994L19.1238 29.7244C18.9743 30.1919 18.5632 30.4954 18.0793 30.4954H15.6835C15.1996 30.4954 14.7886 30.192 14.639 29.7244L14.1192 28.0994C14.0071 27.7488 14.0619 27.3972 14.2753 27.0989C14.4886 26.8007 14.8008 26.639 15.1638 26.639H18.5989C18.9619 26.639 19.274 26.8007 19.4874 27.0989C19.7009 27.3972 19.7558 27.7488 19.6436 28.0994Z" fill="#EB5463"/>
<path fill-rule="evenodd" clip-rule="evenodd" d="M31.7941 41.7878C31.7941 50.1541 1.96887 50.1541 1.96887 41.7878C1.96887 36.5835 4.55323 31.9929 8.48876 29.2656C8.70126 29.1184 8.9364 29.0696 9.18877 29.1204C9.44114 29.1713 9.64023 29.3074 9.78136 29.5258L12.3983 33.5743L16.1095 39.3153C16.2855 39.5875 16.5611 39.7385 16.8815 39.7385C17.2021 39.7385 17.4777 39.5874 17.6537 39.3153L21.3648 33.5743L23.982 29.5254C24.1231 29.307 24.3222 29.1708 24.5746 29.12C24.8268 29.0693 25.0621 29.118 25.2746 29.2653C29.21 31.9924 31.7941 36.5831 31.7941 41.7878Z" fill="#636C77"/>
</g>
<defs>
<clipPath id="clip0_0_1">
<rect width="63" height="64" fill="white"/>
</clipPath>
</defs>
</svg>
