<svg width="64" height="64" viewBox="0 0 64 64" fill="none" xmlns="http://www.w3.org/2000/svg">
<rect width="64" height="64" fill="#F5F5F5"/>
<g clip-path="url(#clip0_0_1)">
<path d="M59 42H5C3.89543 42 3 42.8954 3 44C3 45.1046 3.89543 46 5 46H59C60.1046 46 61 45.1046 61 44C61 42.8954 60.1046 42 59 42Z" fill="#999999"/>
<path d="M58 38C57.9985 39.3393 57.8949 40.6765 57.69 42H6.31C6.10509 40.6765 6.00146 39.3393 6 38C6.00075 34.0869 6.88459 30.2244 8.58566 26.7004C10.2867 23.1763 12.7612 20.0816 15.8245 17.6469C18.8879 15.2121 22.4613 13.5001 26.2784 12.6384C30.0954 11.7766 34.0577 11.7875 37.87 12.67C39.9955 13.1569 42.0492 13.9165 43.98 14.93C48.2075 17.1203 51.7513 20.4309 54.2239 24.4997C56.6966 28.5685 58.0029 33.2388 58 38Z" fill="#E6E6E6"/>
<path d="M48.82 18.181C52.8165 22.8729 55.0078 28.8367 55 35V35.1C54.9816 36.1459 54.5511 37.1424 53.8021 37.8726C53.0531 38.6029 52.0461 39.0081 51 39H6.039C6.07025 40.0043 6.15973 41.006 6.307 42H57.693C58.3747 37.6023 57.9169 33.1033 56.3634 28.9331C54.8099 24.7629 52.2127 21.0609 48.82 18.181Z" fill="#C6C6C4"/>
<path d="M48.472 21.52L52.944 32.776C53.0861 33.1335 53.3284 33.4424 53.6417 33.6657C53.9549 33.889 54.326 34.0172 54.7103 34.0349C55.0946 34.0526 55.4758 33.9592 55.8084 33.7657C56.1409 33.5722 56.4105 33.2869 56.585 32.944L57.085 31.956L48.472 21.52Z" fill="#C6C6C4"/>
<path d="M35 6.91499V12.085C33.0064 11.8583 30.9936 11.8583 29 12.085V6.91499C29 6.11934 29.3161 5.35628 29.8787 4.79367C30.4413 4.23106 31.2044 3.91499 32 3.91499C32.7956 3.91499 33.5587 4.23106 34.1213 4.79367C34.6839 5.35628 35 6.11934 35 6.91499Z" fill="#999999"/>
<path d="M49 20.632L55.106 36L57.616 31.068L63 33.368L56.894 18L49 20.632Z" fill="#F29A03"/>
<path d="M50.93 22.14L50.32 23.35C50.1966 23.5956 50.0073 23.802 49.7733 23.9463C49.5393 24.0905 49.2699 24.1669 48.995 24.1669C48.7201 24.1669 48.4507 24.0905 48.2167 23.9463C47.9827 23.802 47.7935 23.5956 47.67 23.35L46.63 21.26C46.4723 20.9404 46.2037 20.6891 45.8744 20.5529C45.545 20.4167 45.1774 20.405 44.84 20.52L42.62 21.26C42.3583 21.3458 42.0779 21.3574 41.8099 21.2934C41.542 21.2295 41.2971 21.0925 41.1023 20.8977C40.9075 20.7029 40.7705 20.458 40.7066 20.1901C40.6426 19.9222 40.6542 19.6417 40.74 19.38L41.48 17.16C41.595 16.8226 41.5833 16.455 41.4471 16.1256C41.311 15.7963 41.0596 15.5277 40.74 15.37L38.65 14.32C38.4025 14.2001 38.194 14.0124 38.0489 13.7787C37.9037 13.5451 37.8278 13.2751 37.83 13C37.8285 12.8887 37.8419 12.7777 37.87 12.67C39.9956 13.1569 42.0492 13.9165 43.98 14.93L50.55 20.33C50.8083 20.5446 50.9864 20.8402 51.0554 21.1688C51.1244 21.4974 51.0802 21.8397 50.93 22.14Z" fill="#C6C6C4"/>
<path d="M51.528 21.52L47.056 32.776C46.9139 33.1335 46.6716 33.4424 46.3583 33.6657C46.0451 33.889 45.674 34.0172 45.2897 34.0349C44.9054 34.0526 44.5241 33.9592 44.1916 33.7657C43.8591 33.5722 43.5895 33.2869 43.415 32.944L42.915 31.956L51.528 21.52Z" fill="#C6C6C4"/>
<path d="M51 20.632L44.894 36L42.384 31.068L37 33.368L43.106 18L51 20.632Z" fill="#F29A03"/>
<path d="M57.11 15.945L63 13L57.11 10.055L59.192 3.808L52.945 5.89L50 0L47.055 5.89L40.808 3.808L42.89 10.055L37 13L42.89 15.945L40.808 22.192L47.055 20.11L50 26L52.945 20.11L59.192 22.192L57.11 15.945Z" fill="#F44336"/>
<path d="M50 18C52.7614 18 55 15.7614 55 13C55 10.2386 52.7614 8 50 8C47.2386 8 45 10.2386 45 13C45 15.7614 47.2386 18 50 18Z" fill="#F29A03"/>
<path d="M63.058 48.281L61.723 46.95C61.1171 46.3496 60.3008 46.0093 59.4478 46.0017C58.5949 45.994 57.7726 46.3196 57.156 46.909L51.579 51.775C51.3843 51.102 50.9773 50.51 50.4186 50.0872C49.8599 49.6644 49.1796 49.4335 48.479 49.429H37.346C37.1581 49.4268 36.9732 49.381 36.806 49.2953C36.6387 49.2096 36.4936 49.0862 36.382 48.935C35.719 48.021 34.8479 47.278 33.8407 46.7676C32.8334 46.2572 31.7191 45.9941 30.59 46C29.3106 46.0044 28.0526 46.3283 26.9303 46.9423C25.8079 47.5563 24.8566 48.441 24.163 49.516C24.0567 49.6786 24 49.8687 24 50.063V59.937C24 60.1313 24.0567 60.3214 24.163 60.484C24.8564 61.5592 25.8076 62.444 26.9301 63.0581C28.0525 63.6721 29.3106 63.9959 30.59 64H49.842C50.6608 64.0003 51.4484 63.686 52.042 63.122L62.867 52.9C63.203 52.628 63.4777 52.2879 63.6729 51.9022C63.8682 51.5165 63.9797 51.0939 64 50.662C64.0173 50.2214 63.9424 49.7821 63.7802 49.3721C63.618 48.9621 63.372 48.5905 63.058 48.281Z" fill="#FDE9D2"/>
<path d="M62.867 50.9L52.037 61.12C51.4434 61.684 50.6558 61.9983 49.837 61.998H30.59C29.3106 61.9939 28.0525 61.6701 26.9301 61.0561C25.8076 60.442 24.8564 59.5572 24.163 58.482C24.0571 58.3199 24.0004 58.1306 24 57.937V59.937C24 60.1313 24.0567 60.3214 24.163 60.484C24.8564 61.5592 25.8076 62.444 26.9301 63.0581C28.0525 63.6721 29.3106 63.9959 30.59 64H49.842C50.6608 64.0003 51.4484 63.686 52.042 63.122L62.867 52.9C63.203 52.628 63.4777 52.2879 63.6729 51.9022C63.8682 51.5165 63.9797 51.0938 64 50.662C64.0134 50.2719 63.953 49.8827 63.822 49.515C63.6377 50.056 63.3072 50.5354 62.867 50.9Z" fill="#F7D8BA"/>
<path d="M37 54H50V56H37V54Z" fill="#F7D8BA"/>
<path d="M25 47H19C18.4477 47 18 47.4477 18 48V62C18 62.5523 18.4477 63 19 63H25C25.5523 63 26 62.5523 26 62V48C26 47.4477 25.5523 47 25 47Z" fill="white"/>
<path d="M25 47H24V57C24 58.0609 23.5786 59.0783 22.8284 59.8284C22.0783 60.5786 21.0609 61 20 61H18V62C18 62.2652 18.1054 62.5196 18.2929 62.7071C18.4804 62.8946 18.7348 63 19 63H25C25.2652 63 25.5196 62.8946 25.7071 62.7071C25.8946 62.5196 26 62.2652 26 62V48C26 47.7348 25.8946 47.4804 25.7071 47.2929C25.5196 47.1054 25.2652 47 25 47Z" fill="#E5E5E5"/>
<path d="M19 46H1C0.447715 46 0 46.4477 0 47V63C0 63.5523 0.447715 64 1 64H19C19.5523 64 20 63.5523 20 63V47C20 46.4477 19.5523 46 19 46Z" fill="#4D4D4D"/>
<path d="M15 49H17V51H15V49ZM11 49H13V51H11V49Z" fill="#262626"/>
</g>
<defs>
<clipPath id="clip0_0_1">
<rect width="64" height="64" fill="white"/>
</clipPath>
</defs>
</svg>
