<svg width="64" height="64" viewBox="0 0 64 64" fill="none" xmlns="http://www.w3.org/2000/svg">
<rect width="64" height="64" fill="#F5F5F5"/>
<path d="M34.4263 41.4833H15.4663C10.7491 41.4833 7.36938 36.9327 8.73126 32.416L10.1355 27.7525C10.3564 27.0228 10.469 26.2646 10.4696 25.5021V20.832C10.4696 12.8367 16.9515 6.35483 24.9468 6.35483C32.943 6.35483 39.4249 12.8367 39.4249 20.832V25.5021C39.4249 26.2645 39.536 27.024 39.7562 27.7525L41.1614 32.416C42.5233 36.9337 39.1426 41.4833 34.4263 41.4833Z" fill="#4F5D99"/>
<path d="M48.0094 55.8117V60.5675C48.0094 61.1379 47.5482 61.599 46.9779 61.599H2.91385C2.3435 61.6 1.88232 61.1388 1.88232 60.5675V55.8117C1.88232 46.5242 9.41079 38.9929 18.7002 38.9929L31.1943 38.9957C40.4819 38.9957 48.0103 46.5242 48.0103 55.8117H48.0094Z" fill="#F29A03"/>
<path d="M31.1943 38.9958V45.8428H18.6983V38.9958C19.3372 38.003 19.677 36.8474 19.6772 35.6668V31.7082H30.2155V35.6668C30.2155 36.848 30.5562 38.0028 31.1943 38.9958Z" fill="#FFCBBA"/>
<path d="M30.2155 31.7082V35.5812C28.6146 36.5105 26.796 36.9986 24.9449 36.9958C23.0249 36.9958 21.2254 36.4809 19.6762 35.5812V31.7082H30.2155Z" fill="#EFB7A8"/>
<path d="M31.1943 38.9957V61.6H18.6983V38.9957C18.6983 44.4875 31.1943 44.4875 31.1943 38.9957ZM11.6847 24.0188V20.7012C11.6847 13.3882 17.6329 7.43998 24.9458 7.43998C32.2588 7.43998 38.207 13.3882 38.207 20.7012V24.0188H39.8098V20.7012C39.8098 12.5054 33.1426 5.83716 24.9458 5.83716C16.7491 5.83716 10.0818 12.5054 10.0818 20.7012V24.0188H11.6847Z" fill="#E9E9FF"/>
<path d="M34.7124 17.5896V26.4207C34.7124 31.8146 30.3397 36.1873 24.9449 36.1873C19.552 36.1873 15.1802 31.8155 15.1802 26.4226V20.7812C15.1801 20.478 15.2397 20.1778 15.3556 19.8977C15.4715 19.6176 15.6415 19.3631 15.8558 19.1487C16.0701 18.9343 16.3246 18.7643 16.6046 18.6482C16.8847 18.5322 17.1848 18.4725 17.488 18.4725H23.248C23.9031 18.4727 24.5398 18.2552 25.0579 17.8541L27.5802 15.8993C28.0979 15.4981 28.7342 15.2803 29.3891 15.28H32.4047C32.7078 15.28 33.008 15.3397 33.288 15.4558C33.5681 15.5718 33.8225 15.7419 34.0368 15.9563C34.2512 16.1707 34.4211 16.4252 34.537 16.7053C34.653 16.9854 34.7126 17.2865 34.7124 17.5896Z" fill="#FFCBBA"/>
<path d="M33.6338 32.3783H28.3105V31.0391H33.6338C34.1396 31.0383 34.6244 30.8371 34.982 30.4795C35.3396 30.1218 35.5409 29.637 35.5416 29.1313V25.7336H36.8809V29.1313C36.8802 29.9922 36.5378 30.8177 35.929 31.4265C35.3203 32.0353 34.4948 32.3776 33.6338 32.3783Z" fill="#E9E9FF"/>
<path d="M39.8099 23.6273V24.9205C39.8099 25.6164 39.5334 26.2838 39.0413 26.7759C38.5492 27.268 37.8818 27.5445 37.1859 27.5445V21.0033C37.8818 21.0033 38.5492 21.2798 39.0413 21.7718C39.5334 22.2639 39.8099 22.9314 39.8099 23.6273Z" fill="#FDC72E"/>
<path d="M38.0837 21.8852V26.6645C38.0834 26.9188 38.0328 27.1706 37.9351 27.4054C37.8373 27.6402 37.6942 27.8535 37.514 28.0329C37.3337 28.2124 37.1199 28.3546 36.8846 28.4513C36.6494 28.548 36.3974 28.5974 36.143 28.5967H34.4715C34.6277 27.9002 34.7153 27.1699 34.7153 26.4207V19.9529H36.143C37.2131 19.9529 38.0837 20.8151 38.0837 21.8852Z" fill="#F44336"/>
<path d="M10.0818 23.6273V24.9205C10.0818 25.2651 10.1498 25.6064 10.2817 25.9249C10.4136 26.2433 10.607 26.5326 10.8507 26.7763C11.0945 27.0199 11.3839 27.2132 11.7023 27.345C12.0208 27.4768 12.3621 27.5446 12.7068 27.5445V21.0033C12.3621 21.0032 12.0208 21.071 11.7023 21.2028C11.3839 21.3346 11.0945 21.5278 10.8507 21.7715C10.607 22.0152 10.4136 22.3045 10.2817 22.6229C10.1498 22.9413 10.0818 23.2826 10.0818 23.6273Z" fill="#FDC72E"/>
<path d="M15.424 28.5967H13.744C13.4896 28.5976 13.2374 28.5483 13.0021 28.4516C12.7667 28.3549 12.5528 28.2127 12.3724 28.0333C12.1921 27.8538 12.0489 27.6405 11.9511 27.4056C11.8533 27.1708 11.8027 26.9189 11.8023 26.6645V21.8852C11.8023 20.8151 12.6729 19.9529 13.744 19.9529H15.3374C15.2326 20.2161 15.1792 20.497 15.1802 20.7802V26.4207C15.1802 27.1699 15.2677 27.9012 15.424 28.5967ZM29.4437 30.8574V32.3181C29.4437 32.4339 29.3977 32.545 29.3158 32.6269C29.2339 32.7088 29.1229 32.7548 29.007 32.7548H25.728C25.6705 32.7549 25.6136 32.7437 25.5604 32.7219C25.5073 32.7 25.459 32.6679 25.4182 32.6273C25.3775 32.5868 25.3452 32.5386 25.3231 32.4855C25.301 32.4325 25.2895 32.3756 25.2894 32.3181V30.8574C25.2894 30.6165 25.4852 30.4216 25.728 30.4216H29.007C29.248 30.4216 29.4437 30.6165 29.4437 30.8574Z" fill="#F44336"/>
<path d="M20.6823 24.9534C21.161 24.9534 21.5491 24.5653 21.5491 24.0866C21.5491 23.6078 21.161 23.2198 20.6823 23.2198C20.2036 23.2198 19.8155 23.6078 19.8155 24.0866C19.8155 24.5653 20.2036 24.9534 20.6823 24.9534Z" fill="#4F5D99"/>
<path d="M28.9957 24.9534C29.4745 24.9534 29.8626 24.5653 29.8626 24.0866C29.8626 23.6078 29.4745 23.2198 28.9957 23.2198C28.517 23.2198 28.1289 23.6078 28.1289 24.0866C28.1289 24.5653 28.517 24.9534 28.9957 24.9534Z" fill="#4F5D99"/>
<path d="M25.0324 26.112V28.032C25.0326 28.0811 25.023 28.1297 25.0042 28.1751C24.9855 28.2205 24.958 28.2618 24.9233 28.2965C24.8886 28.3312 24.8473 28.3587 24.8019 28.3774C24.7565 28.3962 24.7079 28.4058 24.6588 28.4056C24.5608 28.4041 24.4674 28.3641 24.3989 28.2941C24.3303 28.2241 24.2922 28.1299 24.2927 28.032V26.112C24.2927 25.9087 24.4555 25.7383 24.6597 25.7383C24.8706 25.7383 25.0324 25.9087 25.0324 26.112Z" fill="#EFB7A8"/>
<path d="M30.8141 22.1769H27.6066C27.5573 22.1771 27.5086 22.1675 27.4631 22.1487C27.4176 22.1299 27.3762 22.1023 27.3414 22.0675C27.3066 22.0327 27.279 21.9914 27.2602 21.9459C27.2415 21.9004 27.2319 21.8516 27.232 21.8024C27.232 21.5991 27.4033 21.4353 27.6066 21.4353L30.8141 21.4362C31.0174 21.4362 31.1877 21.5991 31.1877 21.8033C31.1879 21.8524 31.1783 21.901 31.1596 21.9464C31.1408 21.9918 31.1133 22.0331 31.0786 22.0678C31.0439 22.1025 31.0026 22.13 30.9572 22.1488C30.9118 22.1675 30.8632 22.1771 30.8141 22.1769ZM22.287 22.1769H19.0776C19.0285 22.177 18.9798 22.1673 18.9344 22.1484C18.889 22.1296 18.8478 22.102 18.8131 22.0672C18.7784 22.0324 18.7509 21.9911 18.7322 21.9456C18.7134 21.9002 18.7039 21.8515 18.704 21.8024C18.704 21.5991 18.8734 21.4353 19.0776 21.4353L22.2852 21.4362C22.4885 21.4362 22.6588 21.5991 22.6588 21.8033C22.6589 21.8524 22.6494 21.901 22.6306 21.9464C22.6119 21.9918 22.5844 22.0331 22.5496 22.0678C22.5149 22.1025 22.4737 22.13 22.4283 22.1488C22.3829 22.1675 22.3343 22.1771 22.2852 22.1769H22.287Z" fill="#4F5D99"/>
<path d="M15.1802 52.2937C15.1802 52.8941 14.6927 53.3817 14.0922 53.3817H6.57878C6.29564 53.3733 6.02689 53.255 5.82956 53.0518C5.63223 52.8486 5.52185 52.5764 5.52185 52.2932C5.52185 52.0099 5.63223 51.7378 5.82956 51.5346C6.02689 51.3314 6.29564 51.213 6.57878 51.2047H14.0922C14.6927 51.2047 15.1802 51.6922 15.1802 52.2937Z" fill="#E9E9FF"/>
<path d="M62.1176 3.96235V16.1478C62.1176 16.8038 61.7167 17.36 61.1445 17.5887C60.9586 17.6685 60.7585 17.7095 60.5562 17.7092H46.8828L44.4009 20.1854C44.3287 20.2581 44.2365 20.3076 44.1361 20.3279C44.0357 20.3481 43.9315 20.3381 43.8368 20.2991C43.7421 20.2601 43.661 20.1939 43.604 20.1088C43.5469 20.0237 43.5164 19.9236 43.5162 19.8212V17.7092H42.4075C41.5435 17.7092 40.847 17.0118 40.847 16.1478V3.96141C40.847 3.09835 41.5435 2.40094 42.4075 2.40094H60.5562C61.4155 2.40094 62.1176 3.09835 62.1176 3.96235Z" fill="#F44336"/>
<path d="M43.8249 12.3012C43.7899 12.2671 43.7624 12.226 43.7442 12.1806C43.7261 12.1352 43.7176 12.0865 43.7195 12.0376C43.7195 11.7948 43.7901 11.5708 43.9331 11.3647C44.0762 11.1576 44.2494 10.9769 44.4527 10.8197C44.6569 10.6635 44.9242 10.4772 45.2574 10.2616C45.5425 10.079 45.7694 9.92469 45.9378 9.79857C46.1073 9.67245 46.2475 9.5341 46.3595 9.38445C46.4724 9.23386 46.5289 9.07481 46.5289 8.90634C46.5289 8.63998 46.4404 8.42822 46.2654 8.27104C46.0894 8.11481 45.807 8.03575 45.4183 8.03575C44.9976 8.03575 44.5967 8.12045 44.2174 8.28892C44.1764 8.31068 44.131 8.32261 44.0847 8.32375C44.049 8.32389 44.0137 8.31685 43.9808 8.30304C43.9479 8.28923 43.9182 8.26894 43.8933 8.24338C43.8685 8.21782 43.849 8.18751 43.8361 8.15426C43.8232 8.12101 43.8172 8.08551 43.8183 8.04987C43.8183 7.93316 43.8691 7.84657 43.9717 7.7901C44.4562 7.54987 44.9905 7.42733 45.5313 7.43245C45.8305 7.43245 46.1035 7.49175 46.3491 7.61128C46.5938 7.73081 46.7887 7.89739 46.9327 8.11292C47.0738 8.32939 47.1463 8.57692 47.1463 8.85739C47.1463 9.1341 47.0654 9.3901 46.9035 9.62634C46.7431 9.86151 46.548 10.071 46.3247 10.2475C46.0997 10.4263 45.807 10.6315 45.4465 10.8659C45.119 11.0861 44.8724 11.263 44.7058 11.3957C44.5393 11.5294 44.4235 11.6659 44.3576 11.807H46.8018C46.8417 11.8062 46.8813 11.8135 46.9182 11.8286C46.9551 11.8436 46.9885 11.8661 47.0164 11.8946C47.0449 11.9225 47.0674 11.9559 47.0824 11.9928C47.0975 12.0297 47.1048 12.0693 47.104 12.1092C47.104 12.1929 47.0748 12.2635 47.0164 12.319C46.9881 12.3467 46.9545 12.3684 46.9177 12.383C46.8808 12.3975 46.8414 12.4046 46.8018 12.4037H44.0913C44.0423 12.4054 43.9936 12.3973 43.9478 12.3798C43.9021 12.3624 43.8603 12.336 43.8249 12.3021V12.3012ZM50.4884 12.3482C50.4586 12.3188 50.435 12.2836 50.4193 12.2448C50.4036 12.2059 50.3961 12.1642 50.3971 12.1223V11.168H48.256C48.2027 11.1689 48.1497 11.1591 48.1002 11.1392C48.0508 11.1194 48.0058 11.0898 47.968 11.0522C47.9293 11.0158 47.8987 10.9717 47.8781 10.9228C47.8575 10.8738 47.8474 10.8211 47.8484 10.768V10.704C47.8484 10.6061 47.8767 10.5214 47.9331 10.4517L50.1374 7.63575C50.1765 7.583 50.2283 7.54093 50.288 7.51339C50.3503 7.48258 50.4189 7.46648 50.4884 7.46634H50.6296C50.751 7.46634 50.8489 7.50587 50.9242 7.58304C50.9995 7.66022 51.0371 7.75716 51.0371 7.87481V10.5986H51.5698C51.6498 10.5986 51.7176 10.6268 51.7741 10.6833C51.8305 10.7397 51.8588 10.8075 51.8588 10.8866C51.8588 10.9666 51.8305 11.0334 51.7741 11.087C51.7472 11.1135 51.7152 11.1343 51.6802 11.1482C51.6451 11.1621 51.6076 11.1688 51.5698 11.168H51.0362V12.1223C51.036 12.1644 51.0274 12.2059 51.011 12.2446C50.9946 12.2833 50.9707 12.3183 50.9407 12.3477C50.9107 12.3771 50.8751 12.4003 50.8361 12.4159C50.7971 12.4315 50.7554 12.4392 50.7134 12.4386C50.6716 12.4395 50.6301 12.4319 50.5915 12.4162C50.5528 12.4005 50.5177 12.378 50.4884 12.3482ZM48.5298 10.5986H50.3971V8.1901L48.5298 10.5986ZM52.5007 12.9863C52.4614 12.9465 52.4347 12.896 52.424 12.8411C52.4132 12.7862 52.419 12.7293 52.4404 12.6776L54.3011 7.23575C54.32 7.17928 54.3529 7.13222 54.4 7.09457C54.45 7.05606 54.5119 7.0361 54.575 7.0381C54.6224 7.0368 54.6693 7.04744 54.7115 7.06903C54.7536 7.09063 54.7897 7.12248 54.8163 7.16167C54.8429 7.20085 54.8593 7.24611 54.8638 7.29327C54.8684 7.34042 54.861 7.38796 54.8423 7.43151L52.9816 12.8743C52.9631 12.9297 52.9287 12.9785 52.8828 13.0146C52.8327 13.0531 52.7709 13.073 52.7077 13.071C52.6692 13.0723 52.6308 13.0654 52.5952 13.0508C52.5595 13.0362 52.5273 13.0142 52.5007 12.9863ZM56.6541 12.3482C56.6242 12.3189 56.6006 12.2837 56.5849 12.2448C56.5692 12.2059 56.5617 12.1642 56.5628 12.1223C56.5628 12.0659 56.5769 12.0103 56.6051 11.9539L58.5355 8.11387H55.9868C55.947 8.11451 55.9075 8.10699 55.8708 8.09178C55.834 8.07656 55.8008 8.05397 55.7731 8.0254C55.7445 7.99758 55.7219 7.96419 55.7066 7.92728C55.6914 7.89037 55.6839 7.85072 55.6847 7.81081C55.6847 7.7261 55.7138 7.65457 55.7731 7.59434C55.8003 7.56481 55.8333 7.54133 55.8701 7.52543C55.9069 7.50954 55.9467 7.50159 55.9868 7.5021H58.8517C58.9557 7.49882 59.0569 7.5367 59.1331 7.60751C59.2084 7.6781 59.2461 7.76751 59.2461 7.87481C59.2461 7.97739 59.2216 8.07998 59.1746 8.18351L57.1802 12.2635C57.1506 12.3164 57.107 12.3601 57.0541 12.3896C57.0009 12.4214 56.9401 12.4383 56.8781 12.4386C56.8365 12.4394 56.7952 12.4317 56.7567 12.416C56.7182 12.4003 56.6832 12.3779 56.6541 12.3482Z" fill="#E9E9FF"/>
<g opacity="0.2">
<path d="M56.8367 17.7092H48.7924L43.6461 2.39999H51.6847L56.8367 17.7092ZM61.1444 17.5887C60.9586 17.6685 60.7584 17.7095 60.5562 17.7092H58.9016L53.7506 2.39999H56.0404L61.1444 17.5887Z" fill="white"/>
</g>
</svg>
